<svg xmlns="http://www.w3.org/2000/svg" width="635" height="629" fill="none"><path stroke="#83A4CB" stroke-linecap="round" stroke-width="25" d="M314 41v537M314 41v537M586 309H49M586 243l-66 66M586 243l-66 66M498 243l-66 66M585 374l-63-67M622 279l-30 30M622 339l-29-31M500 392l-66-85M378 580l-66-66M378 580l-66-66M390 492l-78-66M247 579l68-63M342 616l-30-30M282 616l31-29M247 489l67-63M378 49l-66 66M378 49l-66 66M378 137l-66 66M247 50l68 63M342 13l-30 30M282 13l31 29M247 141l67 62M49 243l66 66M49 243l66 66M137 243l66 66M50 374l63-67M13 279l30 30M13 339l29-31M142 386l61-79M495 139 143 491M495 139 143 491M498 493 144 140M541 450h-87M541 450h-87M498 392H396M454 536l3-86M541 498h-40M501 537l2-39M390 491l8-100M182 535v-86M182 535v-86M244 492l-4-101M97 449l86 3M135 536v-40M96 496l39 1M142 387l100 5M532 186h-87M532 186h-87M498 242l-111 2M445 101l3 85M532 139h-40M492 100l2 39M378 137l10 108M188 97v87M188 97v87M245 142v100M102 184l86-3M140 97v40M101 137l39-2M138 243l109-2"/><path stroke="#83A4CB" stroke-linejoin="round" stroke-width="25" d="m230 228 16 86-19 81 100-21 88 15-22-79 18-88-87 24-94-18Z"/><circle cx="313.5" cy="307.5" r="35" stroke="#83A4CB" stroke-width="25"/></svg>